<svg width="258" height="440" xmlns="http://www.w3.org/2000/svg" xmlns:xlink="http://www.w3.org/1999/xlink" xml:space="preserve" overflow="hidden"><defs><clipPath id="clip0"><rect x="201" y="1184" width="258" height="440"/></clipPath></defs><g clip-path="url(#clip0)" transform="translate(-201 -1184)"><path d="M48.1199 327.811C5.75932 328.787 0.304561 349.873 0.0934897 350.773-0.343395 352.618 0.793224 354.467 2.63245 354.907 2.89207 354.969 3.15815 355 3.42496 355L133.573 355C135.465 355 136.999 353.464 137 351.563 137.001 350.041 135.999 348.697 134.54 348.264 131.709 347.385 128.963 346.247 126.336 344.866 94.1999 328.708 72.543 299.33 61.9671 257.545 55.2574 231.027 54.5419 203.017 54.3679 174.259 54.3556 172.361 52.8127 170.832 50.921 170.844 49.0296 170.856 47.5057 172.405 47.5179 174.303 47.6952 203.502 48.4277 231.97 55.3279 259.237 65.8167 300.68 86.8415 330.553 117.867 348.127L9.23462 348.127C13.3083 343.051 23.6069 335.21 48.4848 334.677 51.6638 334.33 54.5897 332.776 56.6623 330.333 60.5558 325.457 56.786 317.835 54.7256 312.684 52.0299 305.945 49.4111 299.192 47.1433 292.295 46.1569 289.295 45.2469 286.261 44.4677 283.199 2.45842 118.115 59.7831 34.9764 89.3499 4.86294 87.2338 3.84301 85.529 2.12679 84.5201 0 53.9867 31.1074-5.01033 116.551 37.8317 284.9 40.8 295.618 44.4702 306.127 48.8189 316.361 48.8189 316.361 52.9799 324.395 50.8627 326.674 50.0878 327.326 49.1296 327.725 48.1199 327.811Z" fill-rule="evenodd" transform="matrix(-1 0 0 1 459 1269)"/><path d="M133.091 414.16C161.539 436.642 201.983 440 223.56 440 231.645 440 236.913 439.533 237.891 439.436 239.782 439.251 241.169 437.57 240.983 435.679 240.866 434.497 240.146 433.455 239.075 432.929 220.846 423.978 213.145 418.615 205.998 412.373 176.629 386.733 184.889 346.62 192.179 311.226 193.592 304.363 194.927 297.879 195.973 291.615 204.919 238.112 200.988 178.643 184.609 119.636 182.743 113.686 180.571 107.835 178.102 102.108 172.976 90.3631 169.432 77.9921 167.565 65.3176 160.968 10.3912 118.011 3.52664 113.744 2.98278 106.623 1.07654 99.2898 0.0743438 91.9179 0 60.8299 0 48.3869 20.1284 45.6963 25.3148 38.5518 27.4423 31.1686 28.6693 23.7189 28.967 10.6537 30.8083 3.13714 33.9336 0.739363 38.5209-0.652954 41.1796-0.299722 45.9228 3.71923 45.9817 20.1317 46.8716 36.4577 48.9464 52.5704 52.1886 74.1981 54.1288 73.5621 79.2238 73.5256 80.2964 73.3976 83.9753 77.3157 83.8764 79.9051 83.9703 88.1227 83.9724 96.3176 84.8368 104.354 86.5499 115.58 89.5345 124.443 98.1313 127.754 109.246 133.111 128.01 114.403 148.378 97.8935 166.348 90.8025 173.483 84.4263 181.293 78.8556 189.665 42.8444 251.584 73.4714 293.052 74.7932 294.786 75.9426 296.297 78.1017 296.591 79.6159 295.444 80.301 294.924 80.7667 294.167 80.9207 293.322 85.5818 267.803 102.723 246.403 115.109 233.799 114.416 235.308 113.75 236.83 113.102 238.413 99.2121 272.276 93.051 302.507 94.2651 330.833 95.7011 364.437 110.579 396.365 133.091 414.16ZM99.8072 34.375C96.0034 34.375 92.9197 31.2969 92.9197 27.5 92.9197 23.7031 96.0034 20.625 99.8072 20.625 103.611 20.625 106.695 23.7031 106.695 27.5 106.695 31.2969 103.611 34.375 99.8072 34.375ZM130.879 352.633C132.743 352.316 134.51 353.567 134.826 355.427 134.829 355.441 134.831 355.458 134.833 355.472 136.74 367.152 140.957 375.688 147.367 380.844 148.851 382.033 149.089 384.196 147.9 385.677 146.711 387.159 144.544 387.396 143.06 386.21 143.056 386.206 143.053 386.203 143.049 386.2 135.274 379.947 130.222 369.981 128.033 356.575 127.728 354.702 129.002 352.935 130.879 352.633 130.879 352.633 130.879 352.633 130.879 352.633Z" fill-rule="evenodd" transform="matrix(-1 0 0 1 442 1184)"/></g></svg>